<svg width="36" height="36" viewBox="0 0 36 36" fill="none" xmlns="http://www.w3.org/2000/svg">
<path d="M26.4631 34.5H9.53683C8.82023 34.5 8.1273 34.2435 7.58343 33.7769C7.03956 33.3103 6.68067 32.6644 6.57171 31.9562L3.96313 15H32.0368L29.4282 31.9562C29.3192 32.6644 28.9604 33.3103 28.4165 33.7769C27.8726 34.2435 27.1797 34.5 26.4631 34.5Z" fill="#E05555"/>
<path d="M30.3238 15L27.7151 31.9562C27.6062 32.6644 27.2473 33.3103 26.7034 33.7769C26.1595 34.2435 25.4666 34.5 24.75 34.5H26.4631C27.1797 34.5 27.8727 34.2435 28.4166 33.7769C28.9604 33.3103 29.3193 32.6644 29.4283 31.9562L32.0368 15H30.3238Z" fill="#C63E3E"/>
<path d="M33 10.5H3C2.17157 10.5 1.5 11.1716 1.5 12V13.5C1.5 14.3284 2.17157 15 3 15H33C33.8284 15 34.5 14.3284 34.5 13.5V12C34.5 11.1716 33.8284 10.5 33 10.5Z" fill="#FFBC5A"/>
<path d="M33 10.5H31.5C31.8978 10.5 32.2794 10.658 32.5607 10.9393C32.842 11.2206 33 11.6022 33 12V13.5C33 13.8978 32.842 14.2794 32.5607 14.5607C32.2794 14.842 31.8978 15 31.5 15H33C33.3978 15 33.7794 14.842 34.0607 14.5607C34.342 14.2794 34.5 13.8978 34.5 13.5V12C34.5 11.6022 34.342 11.2206 34.0607 10.9393C33.7794 10.658 33.3978 10.5 33 10.5Z" fill="#EF9D3A"/>
<path d="M8.86892 12C8.5555 12 8.2506 11.8979 8.00037 11.7092C7.75014 11.5205 7.56821 11.2553 7.4821 10.954L5.30635 3.33848C5.24502 3.12383 5.23436 2.89788 5.27519 2.67842C5.31603 2.45895 5.40725 2.25196 5.54168 2.07374C5.67611 1.89552 5.85008 1.75094 6.04988 1.65138C6.24968 1.55182 6.46987 1.5 6.6931 1.5C7.00653 1.49998 7.31143 1.60207 7.56165 1.79081C7.81188 1.97955 7.99382 2.24466 8.07992 2.54603L10.2557 10.1615C10.3171 10.3761 10.3278 10.6021 10.2869 10.8216C10.2461 11.041 10.1549 11.248 10.0204 11.4263C9.88599 11.6045 9.71201 11.7491 9.51219 11.8486C9.31238 11.9482 9.09217 12 8.86892 12Z" fill="#505572"/>
<path d="M27.131 12C27.4445 12 27.7494 11.8979 27.9996 11.7092C28.2498 11.5205 28.4318 11.2553 28.5179 10.954L30.6936 3.33848C30.7549 3.12383 30.7656 2.89788 30.7248 2.67842C30.6839 2.45895 30.5927 2.25196 30.4583 2.07374C30.3239 1.89552 30.1499 1.75094 29.9501 1.65138C29.7503 1.55182 29.5301 1.5 29.3069 1.5C28.9934 1.49998 28.6885 1.60207 28.4383 1.79081C28.1881 1.97955 28.0061 2.24466 27.92 2.54603L25.7442 10.1615C25.6829 10.3762 25.6722 10.6021 25.7131 10.8216C25.7539 11.0411 25.8451 11.2481 25.9796 11.4263C26.114 11.6045 26.288 11.7491 26.4878 11.8486C26.6876 11.9482 26.9078 12 27.131 12Z" fill="#505572"/>
<path d="M19.5 21C19.5 20.1716 18.8284 19.5 18 19.5C17.1716 19.5 16.5 20.1716 16.5 21V27C16.5 27.8284 17.1716 28.5 18 28.5C18.8284 28.5 19.5 27.8284 19.5 27V21Z" fill="#FFBC5A"/>
<path d="M11.4868 28.5C11.1366 28.5 10.7978 28.3757 10.5306 28.1493C10.2633 27.9229 10.0851 27.6091 10.0275 27.2636L9.02074 21.2228C8.98542 21.0109 8.99668 20.7938 9.05375 20.5866C9.11081 20.3795 9.21231 20.1872 9.35119 20.0233C9.49006 19.8593 9.66298 19.7276 9.85792 19.6372C10.0529 19.5469 10.2651 19.5 10.48 19.5C10.8303 19.5 11.1691 19.6243 11.4364 19.8507C11.7036 20.077 11.8819 20.3909 11.9394 20.7364L12.9462 26.7772C12.9816 26.9891 12.9703 27.2062 12.9132 27.4134C12.8561 27.6206 12.7546 27.8128 12.6157 27.9768C12.4768 28.1407 12.3039 28.2725 12.109 28.3628C11.914 28.4532 11.7017 28.5 11.4868 28.5Z" fill="#FFBC5A"/>
<path d="M24.5132 28.5C24.2984 28.5 24.0861 28.4532 23.8911 28.3628C23.6961 28.2725 23.5232 28.1407 23.3843 27.9768C23.2454 27.8128 23.1439 27.6206 23.0868 27.4134C23.0298 27.2062 23.0185 26.9891 23.0538 26.7772L24.0606 20.7364C24.1182 20.3909 24.2965 20.077 24.5637 19.8507C24.8309 19.6243 25.1698 19.5 25.52 19.5C25.7349 19.5 25.9472 19.5468 26.1422 19.6372C26.3371 19.7275 26.5101 19.8593 26.649 20.0232C26.7879 20.1872 26.8894 20.3794 26.9464 20.5866C27.0035 20.7938 27.0148 21.0109 26.9795 21.2228L25.9725 27.2636C25.915 27.6091 25.7367 27.9229 25.4695 28.1493C25.2023 28.3757 24.8635 28.5 24.5132 28.5Z" fill="#FFBC5A"/>
</svg>
