<svg width="19" height="22" viewBox="0 0 19 22" fill="none" xmlns="http://www.w3.org/2000/svg">
<path d="M13.095 8.73444V9.66629C13.095 11.6698 11.4643 13.3005 9.46078 13.3005C7.45729 13.3005 5.82654 11.6698 5.82654 9.66629V8.73444" stroke="#999999" stroke-width="1.5" stroke-miterlimit="10" stroke-linecap="round" stroke-linejoin="round"/>
<path d="M5.82654 5.65929V4.63425C5.82654 2.63075 7.45729 1 9.46078 1C10.4858 1 11.3711 1.41934 12.0234 2.07164C12.6757 2.72394 13.095 3.6558 13.095 4.63425V5.65929" stroke="#999999" stroke-width="1.5" stroke-miterlimit="10" stroke-linecap="round" stroke-linejoin="round"/>
<path d="M16.9622 6.21839C12.6291 5.33313 6.52541 5.33313 2.0059 6.21839C1.16723 9.85264 0.701297 14.6983 1.21382 18.6587C1.3536 19.6837 2.14568 20.4758 3.12413 20.6156C6.89815 21.1281 11.8836 21.1281 15.7508 20.6156C16.7758 20.4758 17.5679 19.6837 17.7077 18.6587C18.2202 14.6983 17.7543 9.85264 16.9622 6.21839Z" stroke="#999999" stroke-width="1.5" stroke-miterlimit="10" stroke-linecap="round" stroke-linejoin="round"/>
</svg>
