<svg width="84" height="146" viewBox="0 0 84 146" fill="none" xmlns="http://www.w3.org/2000/svg">
<path d="M83.0244 3.05176e-05H0V2.93142C2.30098 2.93142 4.16068 4.79111 4.16068 7.09209C4.16068 9.39307 2.30098 11.2528 0 11.2528V13.9005C2.30098 13.9005 4.16068 15.7602 4.16068 18.0612C4.16068 20.3621 2.30098 22.2218 0 22.2218V24.8695C2.30098 24.8695 4.16068 26.7292 4.16068 29.0302C4.16068 31.3312 2.30098 33.1909 0 33.1909V35.8386C2.30098 35.8386 4.16068 37.6983 4.16068 39.9993C4.16068 42.3002 2.30098 44.1599 0 44.1599V46.8076C2.30098 46.8076 4.16068 48.6673 4.16068 50.9683C4.16068 53.2693 2.30098 55.129 0 55.129V58.4701C7.56487 58.6278 13.6483 64.8057 13.6483 72.4021C13.6483 79.9985 7.56487 86.271 0 86.4286V89.9904C2.30098 89.9904 4.16068 91.8501 4.16068 94.1511C4.16068 96.4521 2.30098 98.3118 0 98.3118V100.959C2.30098 100.959 4.16068 102.819 4.16068 105.12C4.16068 107.421 2.30098 109.281 0 109.281V111.929C2.30098 111.929 4.16068 113.788 4.16068 116.089C4.16068 118.39 2.30098 120.25 0 120.25V122.898C2.30098 122.898 4.16068 124.757 4.16068 127.058C4.16068 129.359 2.30098 131.219 0 131.219V133.867C2.30098 133.867 4.16068 135.726 4.16068 138.027C4.16068 140.328 2.30098 142.188 0 142.188V145.844H83.0244V3.05176e-05Z" fill="#F4000B"/>
</svg>
