<svg width="77" height="24" viewBox="0 0 77 24" fill="none" xmlns="http://www.w3.org/2000/svg">
<g clip-path="url(#clip0_1_24)">
<path d="M53.5976 1.8422C53.5976 1.8422 52.1633 2.41316 50.4952 4.25166C48.8272 6.09016 47.8557 8.15754 48.5746 8.70735C48.8508 8.91632 49.4877 8.95613 50.6433 7.91124C51.7097 6.9853 52.5469 5.82458 53.0888 4.52034C53.8351 2.7005 53.5976 1.86459 53.5976 1.84469V1.8422ZM62.7266 5.14976C60.8732 4.19942 59.5186 3.03511 58.1092 2.31489C56.7646 1.62452 55.8951 1.33593 54.8079 1.48147C54.6562 1.5085 54.5066 1.54591 54.3601 1.59342C54.3601 1.59342 54.9198 3.50531 52.692 6.71709C50.4355 9.97365 48.3881 9.95126 47.8059 9.05688C47.1964 8.11276 47.9838 6.18843 49.2986 4.47556C50.6756 2.68433 53.0938 1.1991 53.0938 1.1991C53.0938 1.1991 52.3226 0.727661 50.4293 1.80116C48.5821 2.84355 45.4027 5.33137 42.4521 9.52708C39.5016 13.7228 38.9169 16.0315 38.494 17.8488C38.0711 19.6662 38.4554 21.6129 40.4706 21.6129C42.4857 21.6129 44.8317 18.5392 45.4935 17.4707C46.7237 15.4804 47.526 12.4279 45.8517 12.8471C45.027 13.0536 44.359 13.9666 43.9374 14.846C43.6711 15.4109 43.4676 16.0032 43.3303 16.6124C42.7453 16.8535 42.1958 17.1732 41.6971 17.5627C41.1423 17.9737 40.6237 18.4315 40.1472 18.931C40.1472 18.931 40.1546 17.4782 41.3127 15.1272C42.4708 12.7762 44.5966 11.7027 45.8007 11.6019C46.8854 11.5149 48.2973 12.4353 47.1006 15.8312C45.904 19.2271 42.3738 23.3556 38.6657 23.4066C35.2437 23.4539 33.0046 19.0865 37.7676 11.4651C43.0392 3.04506 49.2227 0.461464 51.2304 0.174121C53.2381 -0.113223 53.8911 0.772442 53.8911 0.772442C55.0997 0.276625 56.4049 0.0614194 57.7087 0.143023C60.1604 0.308463 62.0562 2.04372 64.5589 3.26275C63.9083 3.88471 63.2876 4.53776 62.7279 5.14976H62.7266ZM73.7414 2.31489C72.0423 3.40456 69.6913 4.39222 67.4323 4.18076C66.8601 4.77161 66.2481 5.45576 65.6349 6.20211C69.552 6.97707 72.9839 4.5502 74.8087 2.48406C75.474 1.74121 76.0455 0.919469 76.5104 0.0372906C75.6796 0.902612 74.7498 1.66708 73.7402 2.31489H73.7414ZM68.5245 13.3509C68.5542 13.2992 68.5783 13.2446 68.5966 13.1879C68.585 13.0982 68.543 13.0152 68.4776 12.9527C68.4121 12.8903 68.3273 12.8521 68.2371 12.8446C67.864 12.8272 67.3552 12.8981 66.0205 14.3758C64.9132 15.5962 63.9603 16.9481 63.1831 18.4011C62.4194 19.7968 62.1096 20.8367 62.5487 21.1054C62.6914 21.1793 62.8568 21.1962 63.0115 21.1527C63.3088 21.0818 63.6459 20.8031 64.1584 20.2098C64.3984 19.9312 64.6646 19.5368 64.9831 19.1002C65.8662 17.8986 68.0854 14.1159 68.5245 13.3509ZM54.6599 14.958C54.8825 14.3758 55.1661 13.2327 54.5765 12.7836C53.9434 12.3072 52.3288 13.4255 52.3201 14.5724C52.3089 15.7466 53.457 16.2778 53.7319 16.3524C53.8886 16.3947 53.9434 16.3885 54.0192 16.2629C54.2628 15.8433 54.4768 15.4073 54.6599 14.958ZM53.4383 17.0938C53.0382 16.909 52.665 16.6709 52.3288 16.386C51.9916 16.1032 51.7099 15.7603 51.4978 15.3747C51.4754 15.3374 51.4531 15.366 51.4282 15.3996C51.4033 15.4332 51.3038 15.524 50.443 16.7853C49.5822 18.0466 48.2599 20.6601 49.4566 21.1054C50.2228 21.3903 51.4978 20.0481 52.1932 19.1587C52.6669 18.5379 53.0963 17.8845 53.4781 17.2033C53.5142 17.1274 53.4781 17.11 53.4396 17.0938H53.4383ZM67.0131 20.1128C66.6885 20.6327 66.3178 21.6303 67.3863 21.0096C68.6937 20.2546 70.5558 17.4296 70.5558 17.4296H71.4004C70.6319 18.6113 69.7762 19.734 68.8404 20.7882C67.5157 22.256 65.8998 23.5895 64.7617 23.4576C63.4319 23.3021 63.8486 21.5569 63.8486 21.5569C63.8486 21.5569 61.9467 23.582 60.6306 23.4365C58.8531 23.24 59.3954 21.0432 59.3954 21.0432C59.3954 21.0432 57.3853 23.5099 56.0157 23.434C53.8687 23.3096 54.4086 20.6974 55.0057 18.8577C55.3254 17.8737 55.6214 17.1013 55.6214 17.1013C55.6214 17.1013 55.4087 17.1572 54.9509 17.2256C54.7121 17.2592 54.2767 17.2841 54.2767 17.2841C54.2767 17.2841 53.3824 18.8614 52.6671 19.8092C51.9519 20.7571 48.9117 24.0249 47.123 23.3706C45.4686 22.766 46.0159 20.2334 46.9787 18.2208C48.3843 15.2864 52.3375 11.0708 54.6176 11.628C56.981 12.2015 54.6711 16.5141 54.6711 16.5141C54.6711 16.5141 54.6711 16.5303 54.6959 16.5415C54.7432 16.5589 54.8663 16.5726 55.1512 16.5166C55.4464 16.4564 55.7357 16.3702 56.0157 16.2591C56.0157 16.2591 58.3916 11.2835 61.0162 8.02817C63.6409 4.77286 68.8765 -0.833447 70.9314 0.522416C71.429 0.855784 71.2051 2.00391 70.5284 3.39709C70.2236 3.49609 69.9139 3.57913 69.6005 3.64587C70.0533 2.82365 70.353 2.13079 70.4426 1.64691C70.7523 -0.0348563 66.8253 3.51278 64.019 7.32412C62.3287 9.62181 60.827 12.0525 59.5285 14.5923C60.0355 14.2831 60.5194 13.9376 60.9764 13.5586C62.2282 12.5207 63.4178 11.41 64.539 10.2324C65.6187 9.12703 66.6314 7.95816 67.5716 6.73202C67.8704 6.71757 68.1681 6.68684 68.4635 6.63997C67.4383 8.03143 66.3204 9.35215 65.1174 10.5931C63.9979 11.7251 62.7863 12.9429 61.734 13.8273C60.794 14.6266 59.8025 15.3634 58.766 16.0327C58.766 16.0327 56.3118 20.9823 57.6465 21.2994C58.4314 21.4885 59.9813 19.1015 59.9813 19.1015C59.9813 19.1015 62.0039 16.0153 63.2229 14.6234C64.886 12.7326 66.3178 11.638 67.7483 11.6181C68.5817 11.6032 69.073 12.4888 69.073 12.4888L69.4649 11.8818H71.8781C71.8781 11.8818 67.3714 19.5294 67.0107 20.1053L67.0131 20.1128ZM73.7402 2.31489C72.041 3.40456 69.69 4.39222 67.4311 4.18076C66.8589 4.77161 66.2469 5.45576 65.6336 6.20211C69.5507 6.97707 72.9827 4.5502 74.8075 2.48406C75.4732 1.74128 76.0451 0.919536 76.5104 0.0372906C75.6796 0.902612 74.7498 1.66708 73.7402 2.31489ZM39.8499 6.06652H37.5548L36.2575 8.16251H38.5525L39.8499 6.06652ZM28.9831 13.3247C29.9595 11.9863 32.6538 7.29551 32.6538 7.29551C32.6425 7.20591 32.6007 7.12293 32.5355 7.06044C32.4703 6.99794 32.3856 6.95973 32.2956 6.95219C31.9224 6.93477 31.3005 7.06041 30.0653 8.60659C28.8301 10.1528 27.871 11.383 27.1719 12.663C26.4057 14.0599 26.0711 15.0451 26.5114 15.3125C26.6543 15.3841 26.8185 15.4009 26.9729 15.3598C27.259 15.2876 27.6334 15.0003 28.1472 14.4094C28.3885 14.1333 28.6621 13.7614 28.9831 13.3247ZM16.6683 6.9808C16.034 6.50189 14.4206 7.62266 14.4119 8.76705C14.4019 9.94255 15.8635 10.302 16.0526 10.3107C16.1082 10.3154 16.164 10.3037 16.2131 10.2772C16.2468 10.2575 16.2737 10.228 16.2902 10.1926C16.462 9.85489 16.6165 9.50863 16.7529 9.15515C16.9756 8.573 17.258 7.42985 16.6683 6.9808ZM15.7118 11.0272C15.2743 10.8906 14.8563 10.6983 14.4679 10.455C14.0915 10.2097 13.7854 9.87057 13.5797 9.47111C13.5573 9.43379 13.5325 9.4624 13.5101 9.49598C13.4877 9.52957 13.3583 9.69128 12.495 10.9576C11.6318 12.2239 10.353 14.8137 11.5509 15.259C12.3147 15.5489 13.6046 14.1955 14.3049 13.3098C14.829 12.6138 15.3132 11.8887 15.7553 11.1379C15.7839 11.0621 15.7553 11.0447 15.713 11.031L15.7118 11.0272ZM34.4563 11.8072H35.2971C35.2971 11.8072 31.084 17.9023 28.7044 17.6187C27.3759 17.4632 27.7702 15.8238 27.7702 15.8238C27.7702 15.8238 25.9044 18.0081 24.1903 17.5652C22.6354 17.1659 23.6392 14.5798 23.6392 14.5798C23.4626 14.6507 20.0978 18.4434 17.7331 17.5341C15.259 16.5788 16.544 13.4031 17.0142 12.4478C17.4135 11.643 17.855 10.8593 17.855 10.8593C17.855 10.8593 17.4756 10.9663 17.2331 11.021C16.9905 11.0758 16.6397 11.1454 16.6397 11.1454C16.6397 11.1454 15.4692 13.0473 14.754 13.9965C14.0387 14.9456 10.9986 18.2071 9.20737 17.5578C7.41614 16.9084 7.86022 14.402 8.86654 12.4117C10.4986 9.18376 14.3708 5.21693 16.7032 5.81899C19.0591 6.41979 17.1087 10.2411 17.1087 10.2411C17.1087 10.2411 17.5776 10.302 18.7009 9.53579C20.318 8.43244 22.4525 5.46447 24.7637 5.81277C25.8534 5.97696 26.8684 7.09026 25.4802 9.20491C25.0374 9.88408 24.2948 10.4911 23.7263 9.8903C23.3718 9.51713 23.6815 8.83671 24.0534 8.37149C24.1982 8.18185 24.3874 8.0307 24.6043 7.93135C24.8212 7.83201 25.0592 7.78751 25.2974 7.80178C25.2974 7.80178 25.6792 6.93104 24.7077 6.94348C23.9216 6.95841 21.9313 8.79069 20.8081 10.6416C19.7781 12.3408 18.217 15.2354 19.7843 15.866C21.2211 16.4457 23.9552 13.2003 25.2215 11.4999C26.4878 9.7995 29.3736 5.94587 31.7943 5.79162C32.6277 5.73689 33.124 6.49692 33.124 6.49692L33.4039 6.05408H35.8246C35.8246 6.05408 31.2656 13.6618 30.9099 14.2378C30.63 14.6881 30.2581 15.7006 31.2831 15.1334C32.308 14.5662 34.4563 11.8072 34.4563 11.8072ZM33.139 23.9975C31.3566 22.7637 29.2224 22.1409 27.0562 22.2224C26.4699 22.2384 25.8957 22.3924 25.38 22.6718C24.8643 22.9513 24.4218 23.3483 24.0883 23.8308C23.1653 22.2199 21.3405 21.231 18.5193 21.2534C13.9604 21.3057 9.43874 23.4079 5.85628 23.4054C2.42309 23.4054 -0.0809041 21.2472 -4.98997e-05 17.4147C0.150463 10.6889 5.83389 4.6323 10.0756 1.90689C12.5212 0.340805 14.5661 -0.124418 15.9033 0.0260954C16.8786 0.134316 18.0516 1.2613 17.3115 2.92192C16.2243 5.34879 14.7229 5.14976 14.7788 3.98919C14.8099 3.23414 15.3125 2.75897 15.6906 2.4965C15.9307 2.33106 16.3549 2.28379 16.5763 2.27882C16.7915 2.09721 16.9495 0.76871 15.208 1.20532C13.4665 1.64193 11.3519 3.35853 9.3442 5.57642C7.33653 7.79432 4.21059 11.9863 3.43812 16.3885C3.07738 18.4298 3.31373 22.1528 8.15378 22.1105C12.2587 22.0769 18.3091 19.3739 23.8693 19.4299C26.0275 19.451 27.9058 20.0331 29.3699 20.9362C30.8079 21.8219 32.5319 23.1156 33.1439 23.9987" fill="#F4000B"/>
</g>
<defs>
<clipPath id="clip0_1_24">
<rect width="76.5104" height="24" fill="white"/>
</clipPath>
</defs>
</svg>
