<svg width="36" height="36" viewBox="0 0 36 36" fill="none" xmlns="http://www.w3.org/2000/svg">
<path d="M34.5 18C34.5 19.2461 33.2197 20.3281 32.9605 21.4939C32.693 22.6974 33.3811 24.2389 32.8689 25.3247C32.3482 26.4284 30.7356 26.8361 29.9954 27.7841C29.2516 28.7366 29.2192 30.4343 28.2878 31.1949C27.3609 31.9518 25.7367 31.6091 24.6577 32.1415C23.5961 32.6653 22.8489 34.1829 21.6722 34.4564C20.5322 34.7214 19.2182 33.6914 18.0002 33.6914C16.7822 33.6914 15.4672 34.721 14.3275 34.456C13.1507 34.1824 12.4035 32.6647 11.3418 32.1408C10.2627 31.6083 8.63842 31.9509 7.7118 31.1939C6.78045 30.4331 6.74805 28.7356 6.00435 27.7829C5.26433 26.8349 3.65175 26.4273 3.13118 25.3237C2.619 24.2379 3.3072 22.6965 3.03975 21.4931C2.78025 20.3277 1.5 19.2458 1.5 18C1.5 16.7542 2.78032 15.6719 3.03945 14.5061C3.30697 13.3026 2.61892 11.7611 3.1311 10.6753C3.65175 9.57158 5.2644 9.16395 6.00457 8.21595C6.74835 7.26345 6.78083 5.56575 7.71225 4.8051C8.6391 4.0482 10.2633 4.39095 11.3422 3.85853C12.4039 3.33473 13.1511 1.8171 14.3278 1.54358C15.4678 1.2786 16.7818 2.30858 17.9998 2.30858C19.2178 2.30858 20.5327 1.27898 21.6725 1.54403C22.8493 1.81763 23.5965 3.33533 24.6582 3.8592C25.7373 4.3917 27.3616 4.0491 28.2882 4.80615C29.2196 5.56688 29.252 7.26443 29.9957 8.21708C30.7357 9.16508 32.3482 9.5727 32.8688 10.6763C33.381 11.7621 32.6928 13.3035 32.9602 14.507C33.2197 15.6723 34.5 16.7542 34.5 18Z" fill="#E05555"/>
<path d="M18 29.25C24.2132 29.25 29.25 24.2132 29.25 18C29.25 11.7868 24.2132 6.75 18 6.75C11.7868 6.75 6.75 11.7868 6.75 18C6.75 24.2132 11.7868 29.25 18 29.25Z" fill="#FFBC5A"/>
<path d="M18 6.75C17.6202 6.75 17.2451 6.77002 16.875 6.80677C19.6499 7.08559 22.2223 8.38519 24.0931 10.4534C25.964 12.5217 26.9999 15.2111 26.9999 18C26.9999 20.7888 25.964 23.4782 24.0931 25.5465C22.2223 27.6147 19.6499 28.9143 16.875 29.1931C17.2451 29.2299 17.6202 29.2499 18 29.2499C20.9786 29.2422 23.8327 28.0536 25.9362 25.9446C28.0397 23.8357 29.221 20.9786 29.221 18C29.221 15.0213 28.0397 12.1642 25.9362 10.0553C23.8327 7.94634 20.9786 6.75769 18 6.75Z" fill="#EF9D3A"/>
<path d="M14.25 18C13.805 18 13.37 17.868 13 17.6208C12.63 17.3736 12.3416 17.0222 12.1713 16.611C12.001 16.1999 11.9564 15.7475 12.0432 15.311C12.1301 14.8746 12.3443 14.4737 12.659 14.159C12.9737 13.8443 13.3746 13.6301 13.811 13.5432C14.2475 13.4564 14.6999 13.501 15.111 13.6713C15.5222 13.8416 15.8736 14.13 16.1208 14.5C16.368 14.87 16.5 15.305 16.5 15.75C16.4993 16.3465 16.2621 16.9185 15.8403 17.3403C15.4185 17.7621 14.8465 17.9993 14.25 18ZM14.25 15C14.1017 15 13.9567 15.044 13.8333 15.1264C13.71 15.2088 13.6139 15.3259 13.5571 15.463C13.5003 15.6 13.4855 15.7508 13.5144 15.8963C13.5434 16.0418 13.6148 16.1754 13.7197 16.2803C13.8246 16.3852 13.9582 16.4567 14.1037 16.4856C14.2492 16.5145 14.4 16.4997 14.537 16.4429C14.6741 16.3861 14.7912 16.29 14.8736 16.1667C14.956 16.0433 15 15.8983 15 15.75C14.9997 15.5512 14.9206 15.3606 14.78 15.22C14.6394 15.0794 14.4488 15.0003 14.25 15Z" fill="#505572"/>
<path d="M21.75 22.5C21.305 22.5 20.87 22.368 20.5 22.1208C20.13 21.8736 19.8416 21.5222 19.6713 21.111C19.501 20.6999 19.4564 20.2475 19.5432 19.811C19.6301 19.3746 19.8443 18.9737 20.159 18.659C20.4737 18.3443 20.8746 18.1301 21.311 18.0432C21.7475 17.9564 22.1999 18.001 22.611 18.1713C23.0222 18.3416 23.3736 18.63 23.6208 19C23.868 19.37 24 19.805 24 20.25C23.9993 20.8465 23.7621 21.4185 23.3403 21.8403C22.9185 22.2621 22.3465 22.4993 21.75 22.5ZM21.75 19.5C21.6017 19.5 21.4567 19.544 21.3333 19.6264C21.21 19.7088 21.1139 19.8259 21.0571 19.963C21.0003 20.1 20.9855 20.2508 21.0144 20.3963C21.0434 20.5418 21.1148 20.6754 21.2197 20.7803C21.3246 20.8852 21.4582 20.9566 21.6037 20.9856C21.7492 21.0145 21.9 20.9997 22.037 20.9429C22.1741 20.8861 22.2912 20.79 22.3736 20.6667C22.456 20.5433 22.5 20.3983 22.5 20.25C22.4997 20.0512 22.4206 19.8606 22.28 19.72C22.1394 19.5794 21.9488 19.5003 21.75 19.5Z" fill="#505572"/>
<path d="M15.7492 22.5C15.6166 22.4998 15.4863 22.4645 15.3718 22.3976C15.2572 22.3307 15.1624 22.2346 15.0971 22.1191C15.0318 22.0036 14.9983 21.8729 15.0001 21.7403C15.0018 21.6076 15.0387 21.4778 15.1069 21.364L19.6069 13.864C19.6576 13.7795 19.7244 13.7058 19.8035 13.6471C19.8827 13.5884 19.9726 13.5459 20.0682 13.5219C20.1638 13.498 20.2632 13.4932 20.3607 13.5077C20.4581 13.5222 20.5518 13.5557 20.6363 13.6065C20.7208 13.6572 20.7944 13.724 20.8531 13.8032C20.9117 13.8824 20.9541 13.9724 20.978 14.068C21.0018 14.1636 21.0066 14.263 20.992 14.3605C20.9774 14.4579 20.9438 14.5516 20.893 14.636L16.393 22.136C16.3264 22.2472 16.232 22.3392 16.1192 22.403C16.0063 22.4668 15.8789 22.5002 15.7492 22.5Z" fill="#505572"/>
</svg>
