<svg width="36" height="34" viewBox="0 0 36 34" fill="none" xmlns="http://www.w3.org/2000/svg">
<path d="M17.5 33C24.9558 33 31 26.9558 31 19.5C31 12.0442 24.9558 6 17.5 6C10.0442 6 4 12.0442 4 19.5C4 26.9558 10.0442 33 17.5 33Z" fill="#FFBC5A"/>
<path d="M17.3668 6C16.9054 6 16.4497 6.02403 16 6.06813C19.3714 6.40271 22.4968 7.96224 24.7698 10.4441C27.0428 12.926 28.3014 16.1534 28.3014 19.5C28.3014 22.8466 27.0428 26.074 24.7698 28.5559C22.4968 31.0378 19.3714 32.5973 16 32.9319C16.4497 32.976 16.9054 33 17.3668 33C20.9858 32.9908 24.4534 31.5644 27.0091 29.0336C29.5648 26.5029 31 23.0744 31 19.5C31 15.9256 29.5648 12.4971 27.0091 9.96636C24.4534 7.43562 20.9858 6.00923 17.3668 6Z" fill="#EF9D3A"/>
<path d="M24.224 16.8268H23.1993L21.2099 13.2292C20.9749 12.8041 20.4366 12.6487 20.0103 12.8831C19.584 13.1175 19.4283 13.6544 19.6633 14.0796L21.1826 16.8295H14.2446L15.7639 14.0796C15.9989 13.6544 15.8431 13.1175 15.4168 12.8831C14.9906 12.6487 14.4522 12.8041 14.2172 13.2292L12.2279 16.8268H11.2032C10.49 16.8268 9.95438 17.4809 10.0992 18.1786L11.4983 24.905C11.6076 25.4256 12.0667 25.799 12.6023 25.799H22.8222C23.355 25.799 23.8168 25.4256 23.9261 24.905L25.328 18.1786C25.4728 17.4809 24.9399 16.8268 24.224 16.8268ZM15.1081 23.0054C15.1081 23.4169 14.7747 23.7495 14.3621 23.7495C13.9494 23.7495 13.6161 23.4169 13.6161 23.0054V19.6231C13.6161 19.2116 13.9494 18.8764 14.3621 18.8764C14.7747 18.8764 15.1081 19.2116 15.1081 19.6231V23.0054ZM18.461 23.0054C18.461 23.4169 18.1276 23.7495 17.715 23.7495C17.3023 23.7495 16.969 23.4169 16.969 23.0054V19.6231C16.969 19.2116 17.3023 18.8764 17.715 18.8764C18.1276 18.8764 18.461 19.2116 18.461 19.6231V23.0054ZM21.8138 23.0054C21.8138 23.4169 21.4805 23.7495 21.0678 23.7495C20.6552 23.7495 20.3219 23.4169 20.3219 23.0054V19.6231C20.3219 19.2116 20.6552 18.8764 21.0678 18.8764C21.4805 18.8764 21.8138 19.2116 21.8138 19.6231V23.0054Z" fill="#E05555"/>
<path d="M18.8626 4.77718V2.8381C18.8626 2.52675 18.6879 2.23999 18.4122 2.09524C18.1366 1.95049 17.8036 1.97234 17.547 2.14986L13.2319 5.14315C13.0054 5.30156 12.8716 5.55828 12.8716 5.83412C12.8716 6.10996 13.0081 6.36669 13.2319 6.52236L17.547 9.51565C17.8036 9.69317 18.1366 9.71502 18.4122 9.57027C18.6879 9.42552 18.8626 9.13876 18.8626 8.82741V7.01396C25.1237 7.63392 30.031 12.9295 30.031 19.3558C30.031 26.1945 24.4714 31.7605 17.6344 31.7605C11.87 31.7605 6.77974 27.6802 5.53243 22.0569C5.39869 21.4533 4.80096 21.0737 4.19778 21.2075C3.67647 21.3222 3.32166 21.7865 3.32166 22.3C3.32166 22.3792 3.32984 22.4611 3.34895 22.543C4.8228 29.1823 10.8301 34 17.6344 34C25.7023 34 32.2664 27.4317 32.2664 19.3586C32.2664 11.6978 26.3573 5.40534 18.8626 4.77718Z" fill="#E05555"/>
<path d="M4.05043 19.5254C4.66705 19.5634 5.19636 19.0961 5.23456 18.4848C5.25639 18.1506 5.28913 17.8165 5.33824 17.4796C5.35461 17.3628 5.37371 17.2514 5.39281 17.14C5.5074 16.5341 5.09814 15.9554 4.49244 15.8468C3.884 15.7381 3.30285 16.1402 3.19372 16.7433C3.16916 16.8819 3.14733 17.0204 3.12551 17.1617C3.06821 17.5557 3.02728 17.9523 3.00273 18.3463C3 18.3707 3 18.3924 3 18.4169C3.00273 18.9983 3.45837 19.49 4.05043 19.5254Z" fill="#E05555"/>
<path d="M9.36267 10.2291C9.69939 9.9195 10.0551 9.62367 10.419 9.35549C10.9159 8.98778 11.03 8.28001 10.6661 7.77407C10.3049 7.26812 9.60978 7.15477 9.11285 7.52248C8.68108 7.84042 8.2629 8.18601 7.86915 8.55096C7.62748 8.7749 7.50256 9.08178 7.50256 9.39143C7.50256 9.66238 7.59761 9.93332 7.7904 10.1517C8.20316 10.6134 8.90647 10.6494 9.36267 10.2291Z" fill="#E05555"/>
<path d="M5.06567 14.4324C5.61178 14.6995 6.26764 14.4651 6.52998 13.9091C6.72273 13.5002 6.93956 13.0969 7.17514 12.7126C7.49638 12.1893 7.33844 11.4997 6.82713 11.1753C6.31315 10.8483 5.63587 11.0064 5.31731 11.5297C5.0389 11.9848 4.78191 12.4591 4.55437 12.9415C4.48209 13.0969 4.44729 13.2631 4.44729 13.4239C4.44461 13.8409 4.67216 14.2389 5.06567 14.4324Z" fill="#E05555"/>
<path d="M25.3271 18.1507L23.8748 24.9018C23.7613 25.4242 23.2848 25.799 22.7288 25.799H22.6182C22.8423 25.7333 23.0323 25.6266 23.1685 25.4844C23.3046 25.3449 23.3925 25.178 23.4266 25.0139L23.4323 24.9838L23.4351 24.9537C23.4379 24.9318 23.4408 24.9127 23.4408 24.8935V24.8635L23.4436 24.8306L23.4493 24.7486C23.4549 24.6392 23.4635 24.5297 23.472 24.4203C23.489 24.2015 23.5117 23.9826 23.5372 23.7665C23.6365 22.8967 23.7812 22.0378 23.9655 21.187C24.1499 20.3363 24.3683 19.4911 24.635 18.6568C24.669 18.5528 24.703 18.4489 24.7371 18.3449L24.791 18.189L24.8193 18.1124L24.8335 18.0741L24.8449 18.0468C24.8988 17.9045 24.9129 17.7459 24.8789 17.5817C24.842 17.4176 24.7569 17.2508 24.6208 17.1113C24.6038 17.0921 24.5867 17.0784 24.5669 17.0593C24.547 17.0429 24.53 17.0265 24.5073 17.01C24.4676 16.9772 24.4222 16.9499 24.3768 16.9225C24.2861 16.8705 24.1811 16.8268 24.0676 16.7939H24.1783C24.9243 16.7939 25.4774 17.4504 25.3271 18.1507Z" fill="#C63E3E"/>
<path d="M16.9899 19.6885C16.922 19.969 16.8898 20.2523 16.8648 20.5328C16.8398 20.8133 16.8291 21.0965 16.8291 21.377C16.8291 21.6575 16.8398 21.9407 16.8648 22.2212C16.8898 22.5017 16.9256 22.7849 16.9899 23.0654V19.6885Z" fill="#EF9D3A"/>
<path d="M13.6132 19.6885V23.0654C13.5453 22.7851 13.5131 22.5022 13.4881 22.2219C13.4631 21.9416 13.4524 21.6586 13.4524 21.3783C13.4524 21.0981 13.4631 20.8151 13.4881 20.5348C13.5131 20.2518 13.5453 19.9688 13.6132 19.6885Z" fill="#EF9D3A"/>
</svg>
